<?xml version="1.0" encoding="UTF-8"?>
<svg xmlns="http://www.w3.org/2000/svg" xmlns:xlink="http://www.w3.org/1999/xlink" style="display: none;">
	<symbol id="checkmark" viewBox="0 0 20 20">
		  <path d="M10 20C8.61667 20 7.31667 19.7375 6.1 19.2125C4.88333 18.6875 3.825 17.975 2.925 17.075C2.025 16.175 1.3125 15.1167 0.7875 13.9C0.2625 12.6833 0 11.3833 0 10C0 8.61667 0.2625 7.31667 0.7875 6.1C1.3125 4.88333 2.025 3.825 2.925 2.925C3.825 2.025 4.88333 1.3125 6.1 0.7875C7.31667 0.2625 8.61667 0 10 0C11.0833 0 12.1083 0.158333 13.075 0.475C14.0417 0.791667 14.9333 1.23333 15.75 1.8L14.3 3.275C13.6667 2.875 12.9917 2.5625 12.275 2.3375C11.5583 2.1125 10.8 2 10 2C7.78333 2 5.89583 2.77917 4.3375 4.3375C2.77917 5.89583 2 7.78333 2 10C2 12.2167 2.77917 14.1042 4.3375 15.6625C5.89583 17.2208 7.78333 18 10 18C12.2167 18 14.1042 17.2208 15.6625 15.6625C17.2208 14.1042 18 12.2167 18 10C18 9.7 17.9833 9.4 17.95 9.1C17.9167 8.8 17.8667 8.50833 17.8 8.225L19.425 6.6C19.6083 7.13333 19.75 7.68333 19.85 8.25C19.95 8.81667 20 9.4 20 10C20 11.3833 19.7375 12.6833 19.2125 13.9C18.6875 15.1167 17.975 16.175 17.075 17.075C16.175 17.975 15.1167 18.6875 13.9 19.2125C12.6833 19.7375 11.3833 20 10 20ZM8.6 14.6L4.35 10.35L5.75 8.95L8.6 11.8L18.6 1.775L20 3.175L8.6 14.6Z" fill="currentColor" />

	</symbol>
	<symbol id="arrow-right" viewBox="0 0 20 20">
		   <path d="M15.2188 11.25H0V8.75H15.2188L8.21875 1.75L10 0L20 10L10 20L8.21875 18.25L15.2188 11.25Z" fill="currentColor" />
	</symbol>
	<symbol id="clock" viewBox="0 0 50 51">
		     <path d="M25 50.25C21.5625 50.25 18.3427 49.5969 15.3406 48.2906C12.3385 46.9844 9.72604 45.2198 7.50313 42.9969C5.28021 40.774 3.51562 38.1615 2.20938 35.1594C0.903125 32.1573 0.25 28.9375 0.25 25.5C0.25 22.0625 0.903125 18.8427 2.20938 15.8406C3.51562 12.8385 5.28021 10.226 7.50313 8.00313C9.72604 5.78021 12.3385 4.01562 15.3406 2.70938C18.3427 1.40312 21.5625 0.75 25 0.75C28.7583 0.75 32.3219 1.55208 35.6906 3.15625C39.0594 4.76042 41.9125 7.02917 44.25 9.9625V3.5H49.75V20H33.25V14.5H40.8125C38.9333 11.9333 36.6188 9.91667 33.8688 8.45C31.1188 6.98333 28.1625 6.25 25 6.25C19.6375 6.25 15.0885 8.11771 11.3531 11.8531C7.61771 15.5885 5.75 20.1375 5.75 25.5C5.75 30.8625 7.61771 35.4115 11.3531 39.1469C15.0885 42.8823 19.6375 44.75 25 44.75C29.8125 44.75 34.0177 43.1917 37.6156 40.075C41.2135 36.9583 43.3333 33.0167 43.975 28.25H49.6125C48.925 34.5292 46.2323 39.7656 41.5344 43.9594C36.8365 48.1531 31.325 50.25 25 50.25ZM32.7 37.05L22.25 26.6V11.75H27.75V24.4L36.55 33.2L32.7 37.05Z" fill="currentColor" />

	</symbol>
	<symbol id="why-we__icon_01" viewBox="0 0 30 38">
		       <path d="M29.8464 12.597C29.7061 12.2746 29.4784 11.9979 29.1889 11.7983C28.8995 11.5987 28.5599 11.4841 28.2087 11.4676H19.5871L21.9778 2.54484C22.054 2.26563 22.0647 1.97262 22.0092 1.68859C21.9537 1.40455 21.8335 1.13714 21.6578 0.907128C21.4825 0.679326 21.2572 0.494715 20.9995 0.367456C20.7417 0.240196 20.4582 0.17367 20.1707 0.172979H6.99367C6.56869 0.158422 6.15129 0.288183 5.80947 0.54113C5.46765 0.794077 5.22155 1.1553 5.11124 1.56598L0.0663162 20.3903C-0.00982413 20.6695 -0.0205611 20.9625 0.0349401 21.2466C0.0904413 21.5306 0.210685 21.798 0.386329 22.028C0.563627 22.2584 0.791854 22.4445 1.05313 22.5719C1.3144 22.6992 1.60162 22.7644 1.89228 22.7622H9.17729L5.77009 35.4498C5.65845 35.8589 5.68824 36.2937 5.85461 36.6838C6.02099 37.0739 6.31421 37.3964 6.68676 37.599C7.0593 37.8016 7.48935 37.8725 7.90722 37.8001C8.32509 37.7278 8.70629 37.5165 8.98905 37.2004L29.5076 14.6112C29.7519 14.3437 29.9138 14.0114 29.9739 13.6541C30.034 13.2968 29.9897 12.9298 29.8464 12.597ZM11.4174 28.9366L13.4316 21.4068C13.5077 21.1276 13.5185 20.8346 13.463 20.5506C13.4075 20.2665 13.2872 19.9991 13.1116 19.7691C12.9362 19.5413 12.711 19.3567 12.4532 19.2294C12.1954 19.1022 11.9119 19.0356 11.6245 19.035H4.39591L8.42432 3.93784H17.7047L15.314 12.8606C15.2373 13.1449 15.2283 13.4433 15.2879 13.7318C15.3474 14.0202 15.4738 14.2907 15.6569 14.5214C15.84 14.7521 16.0747 14.9366 16.3421 15.0601C16.6095 15.1836 16.9021 15.2426 17.1965 15.2324H23.9167L11.4174 28.9366Z" fill="currentColor" />
	</symbol>
	<symbol id="why-we__icon_02" viewBox="0 0 34 44">
		        <path d="M8.15277 6.59388C8.37178 5.346 9.73214 5.55814 10.6135 5.31391C11.7317 5.00372 12.5953 4.13199 12.9924 3.06059C13.3289 2.15498 13.1241 0.721701 14.1604 0.489952C14.8157 0.343771 19.7408 0.35625 20.2162 0.573738C20.8714 0.875013 20.907 3.1426 21.7688 4.18903C23.058 5.75424 24.6035 5.0786 25.4742 5.78098C25.5757 5.86298 25.9567 6.54575 25.9567 6.5921V12.2076H30.8533C31.2735 12.2076 31.8255 13.1061 31.8131 13.5499C31.8042 13.8548 31.2059 14.7033 31.0314 14.7033H25.9567V19.0709C25.9567 21.3867 24.2972 23.8842 22.6662 25.4031C21.516 26.4745 21.037 26.0912 21.3272 28.2518H25.8677C29.3541 28.2518 33.1004 32.6746 33.4334 36.0083C33.5206 36.8836 33.5509 42.3654 33.3426 42.8663C33.2001 43.2104 32.5288 43.6952 32.1104 43.5936L1.38836 43.4902C0.868433 43.0927 0.724206 42.9019 0.661886 42.2566C0.138397 36.9638 0.615591 31.0898 6.19591 28.8793C6.5734 28.7296 7.94444 28.2518 8.24002 28.2518H12.7805L12.752 26.4085C10.959 25.0786 9.38136 23.5972 8.67982 21.3938C8.52135 20.8964 8.15099 19.5095 8.15099 19.0709V14.7033H3.07813C2.90185 14.7033 2.30358 13.853 2.29645 13.5499C2.28399 13.1061 2.83597 12.2076 3.25618 12.2076H8.15277C8.36109 10.5265 7.87322 8.18583 8.15277 6.5921V6.59388ZM10.8236 8.02004V12.2094H23.2877V8.02004C20.8999 7.18574 18.9413 5.55101 18.4623 2.9572L15.7398 2.92867C15.2412 4.63827 14.2548 6.28904 12.6594 7.18396C12.0344 7.53514 11.3863 7.61715 10.8236 8.02004ZM23.2877 14.7051H10.8236V19.9641C10.8236 20.2796 11.6053 21.786 11.851 22.1443C14.4204 25.8755 20.1521 25.7311 22.4722 21.8216C22.6395 21.54 23.2877 20.1602 23.2877 19.9641V14.7051ZM18.6582 27.184C18.5282 27.1358 18.4445 27.3622 18.3911 27.3622H15.7202C15.6668 27.3622 15.5831 27.1358 15.4531 27.184V31.3733C15.4531 31.8689 16.6176 32.5053 17.1162 32.4803C17.5702 32.4572 18.6582 31.8368 18.6582 31.3733V27.184ZM3.16716 36.1866C2.9802 37.6947 3.30604 39.5416 3.16716 41.089H15.8092V34.9387C14.0304 34.0865 12.9799 32.7709 12.7645 30.7672C10.8165 30.7672 8.83651 30.5301 6.99005 31.2806C5.14359 32.0311 3.40753 34.2523 3.16538 36.1866H3.16716ZM18.302 34.9387V41.089H30.9441V36.1866C30.9441 35.2685 29.7707 33.2558 29.1012 32.5944C26.9699 30.4926 24.1281 30.6745 21.3468 30.7672C21.1314 32.7709 20.0826 34.0883 18.302 34.9387Z" fill="currentColor" />
	</symbol>
	<symbol id="why-we__icon_03" viewBox="0 0 34 28">
		          <path d="M32.3 17.3999H30.6V5.4999C30.6 4.1473 30.0627 2.85009 29.1062 1.89366C28.1498 0.937222 26.8526 0.399902 25.5 0.399902H8.5C7.1474 0.399902 5.85019 0.937222 4.89376 1.89366C3.93732 2.85009 3.4 4.1473 3.4 5.4999V17.3999H1.7C1.24913 17.3999 0.81673 17.579 0.497918 17.8978C0.179107 18.2166 0 18.649 0 19.0999V22.4999C0 23.8525 0.53732 25.1497 1.49376 26.1061C2.45019 27.0626 3.7474 27.5999 5.1 27.5999H28.9C30.2526 27.5999 31.5498 27.0626 32.5062 26.1061C33.4627 25.1497 34 23.8525 34 22.4999V19.0999C34 18.649 33.8209 18.2166 33.5021 17.8978C33.1833 17.579 32.7509 17.3999 32.3 17.3999ZM6.8 5.4999C6.8 5.04903 6.97911 4.61663 7.29792 4.29782C7.61673 3.97901 8.04913 3.7999 8.5 3.7999H25.5C25.9509 3.7999 26.3833 3.97901 26.7021 4.29782C27.0209 4.61663 27.2 5.04903 27.2 5.4999V17.3999H6.8V5.4999ZM30.6 22.4999C30.6 22.9508 30.4209 23.3832 30.1021 23.702C29.7833 24.0208 29.3509 24.1999 28.9 24.1999H5.1C4.64913 24.1999 4.21673 24.0208 3.89792 23.702C3.57911 23.3832 3.4 22.9508 3.4 22.4999V20.7999H30.6V22.4999Z" fill="currentColor" />
	</symbol>
	<symbol id="why-we__icon_04" viewBox="0 0 32 40">
		            <path d="M30.7831 3.82503C30.558 3.64295 30.295 3.51363 30.0133 3.44657C29.7317 3.37951 29.4386 3.37642 29.1556 3.43753C27.0853 3.87142 24.948 3.87695 22.8755 3.45378C20.8029 3.0306 18.8389 2.18768 17.1044 0.976911C16.78 0.751914 16.3947 0.631348 16 0.631348C15.6053 0.631348 15.22 0.751914 14.8956 0.976911C13.1611 2.18768 11.1971 3.0306 9.12453 3.45378C7.05197 3.87695 4.91473 3.87142 2.84438 3.43753C2.56139 3.37642 2.2683 3.37951 1.98665 3.44657C1.70501 3.51363 1.44198 3.64295 1.21689 3.82503C0.992096 4.00739 0.81102 4.23779 0.686965 4.49931C0.56291 4.76084 0.499027 5.04683 0.500011 5.33628V19.7706C0.498289 22.5485 1.16026 25.2866 2.4308 27.7569C3.70133 30.2272 5.54367 32.3583 7.80438 33.9725L14.8763 39.01C15.2044 39.2436 15.5972 39.3692 16 39.3692C16.4028 39.3692 16.7956 39.2436 17.1237 39.01L24.1956 33.9725C26.4563 32.3583 28.2987 30.2272 29.5692 27.7569C30.8397 25.2866 31.5017 22.5485 31.5 19.7706V5.33628C31.501 5.04683 31.4371 4.76084 31.313 4.49931C31.189 4.23779 31.0079 4.00739 30.7831 3.82503ZM27.625 19.7706C27.6265 21.9305 27.1121 24.0595 26.1247 25.9804C25.1373 27.9013 23.7054 29.5586 21.9481 30.8144L16 35.0575L10.0519 30.8144C8.29464 29.5586 6.86273 27.9013 5.87531 25.9804C4.88789 24.0595 4.37352 21.9305 4.37501 19.7706V7.56441C8.43684 7.91206 12.5048 6.96964 16 4.87128C19.4952 6.96964 23.5632 7.91206 27.625 7.56441V19.7706ZM18.9837 15.3338L13.7719 20.565L12.0475 18.8213C11.6827 18.4564 11.1878 18.2515 10.6719 18.2515C10.1559 18.2515 9.66109 18.4564 9.29625 18.8213C8.93142 19.1861 8.72645 19.6809 8.72645 20.1969C8.72645 20.7129 8.93142 21.2077 9.29625 21.5725L12.3963 24.6725C12.5764 24.8541 12.7907 24.9983 13.0268 25.0966C13.2629 25.195 13.5161 25.2456 13.7719 25.2456C14.0276 25.2456 14.2809 25.195 14.517 25.0966C14.7531 24.9983 14.9674 24.8541 15.1475 24.6725L21.8125 18.0657C22.1773 17.7008 22.3823 17.206 22.3823 16.69C22.3823 16.1741 22.1773 15.6792 21.8125 15.3144C21.4477 14.9496 20.9528 14.7446 20.4369 14.7446C19.9209 14.7446 19.4261 14.9496 19.0612 15.3144L18.9837 15.3338Z" fill="currentColor" />
	</symbol>
	<symbol id="soller-arrow" viewBox="0 0 50 51">
		              <path d="M25 35.25L10 20.25L12.5 17.75L25 30.25L37.5 17.75L40 20.25L25 35.25Z" fill="currentColor" />
	</symbol>
	

</svg>