<svg width="99" height="42" viewBox="0 0 99 42" fill="none" xmlns="http://www.w3.org/2000/svg">
<path fill-rule="evenodd" clip-rule="evenodd" d="M99 21.6821C99 14.7018 95.619 9.19385 89.1568 9.19385C82.6674 9.19385 78.741 14.7018 78.741 21.6275C78.741 29.8349 83.3763 33.9794 90.0293 33.9794C93.2741 33.9794 95.728 33.2432 97.5822 32.2071V26.7537C95.728 27.6808 93.6013 28.2534 90.9019 28.2534C88.257 28.2534 85.9121 27.3263 85.6121 24.1088H98.9455C98.9455 23.7544 99 22.3365 99 21.6821ZM85.5303 19.0917C85.5303 16.0106 87.4117 14.729 89.1295 14.729C90.7928 14.729 92.5651 16.0106 92.5651 19.0917H85.5303Z" fill="#635BFF"/>
<path fill-rule="evenodd" clip-rule="evenodd" d="M68.2123 9.19385C65.5401 9.19385 63.8223 10.4481 62.868 11.3207L62.5135 9.63012H56.5149V41.4233L63.3315 39.9781L63.3588 32.2616C64.3404 32.9706 65.7855 33.9794 68.185 33.9794C73.0657 33.9794 77.5102 30.053 77.5102 21.4094C77.4829 13.502 72.9839 9.19385 68.2123 9.19385ZM66.5763 27.9807C64.9675 27.9807 64.0132 27.4081 63.3588 26.6992L63.3315 16.5832C64.0405 15.7924 65.0221 15.2471 66.5763 15.2471C69.0575 15.2471 70.7753 18.0283 70.7753 21.6003C70.7753 25.254 69.0848 27.9807 66.5763 27.9807Z" fill="#635BFF"/>
<path fill-rule="evenodd" clip-rule="evenodd" d="M47.1331 7.58473L53.977 6.11232V0.577148L47.1331 2.02229V7.58473Z" fill="#635BFF"/>
<path d="M53.977 9.65674H47.1331V33.5153H53.977V9.65674Z" fill="#635BFF"/>
<path fill-rule="evenodd" clip-rule="evenodd" d="M39.8012 11.6751L39.3649 9.65733H33.4753V33.5158H40.292V17.3466C41.9007 15.247 44.6274 15.6288 45.4726 15.9287V9.65733C44.6001 9.33013 41.4099 8.73026 39.8012 11.6751Z" fill="#635BFF"/>
<path fill-rule="evenodd" clip-rule="evenodd" d="M26.1705 3.74023L19.5175 5.15811L19.4902 26.9989C19.4902 31.0344 22.5168 34.0065 26.5523 34.0065C28.7881 34.0065 30.4241 33.5975 31.3239 33.1067V27.5715C30.4514 27.9259 26.1433 29.1802 26.1433 25.1447V15.465H31.3239V9.65715H26.1433L26.1705 3.74023Z" fill="#635BFF"/>
<path fill-rule="evenodd" clip-rule="evenodd" d="M7.73683 16.5832C7.73683 15.5198 8.60936 15.1108 10.0545 15.1108C12.1267 15.1108 14.7443 15.7379 16.8166 16.8558V10.4481C14.5535 9.54832 12.3176 9.19385 10.0545 9.19385C4.51937 9.19385 0.838379 12.0841 0.838379 16.9104C0.838379 24.436 11.1997 23.2363 11.1997 26.481C11.1997 27.7353 10.109 28.1443 8.58209 28.1443C6.31896 28.1443 3.4287 27.2173 1.13831 25.963V32.4525C3.6741 33.5432 6.23716 34.0067 8.58209 34.0067C14.2535 34.0067 18.1527 31.1982 18.1527 26.3174C18.1254 18.1919 7.73683 19.6371 7.73683 16.5832Z" fill="#635BFF"/>
</svg>
