<svg width="118" height="41" viewBox="0 0 118 41" fill="none" xmlns="http://www.w3.org/2000/svg">
<path fill-rule="evenodd" clip-rule="evenodd" d="M0.321045 27.0025L12.9151 23.6373C13.4921 23.51 13.9092 23.4133 14.3249 23.5737C14.6461 23.7023 14.9024 24.0537 15.1266 24.3744L19.004 29.6943C19.2282 30.0149 19.485 30.3663 19.805 30.495C20.2216 30.6553 20.6383 30.5586 21.215 30.43L33.7769 27.0661V3.67351L21.1829 7.03852C20.6064 7.16669 20.1899 7.2627 19.773 7.1026C19.4526 6.97397 19.1963 6.62162 18.9719 6.30096L15.0935 0.981037C14.87 0.660851 14.6132 0.308505 14.293 0.180336C13.8764 0.0195389 13.4597 0.116487 12.8829 0.243951L0.321045 3.60919V27.0025Z" fill="#E33131"/>
<path fill-rule="evenodd" clip-rule="evenodd" d="M48.0392 10.369V4.6073L50.0636 3.62256V13.4725H48.0392L44.0727 6.61808V13.4725H42.0486V4.6073L44.0591 3.62256L48.0392 10.369Z" fill="black"/>
<path fill-rule="evenodd" clip-rule="evenodd" d="M63.2961 13.4731H61.2724V5.20181H58.2764L59.2484 3.52881H66.1836L65.1982 5.20181H63.2961V13.4731Z" fill="black"/>
<path fill-rule="evenodd" clip-rule="evenodd" d="M68.711 13.4725H66.6873V4.6073L68.711 3.62256V13.4725Z" fill="black"/>
<path fill-rule="evenodd" clip-rule="evenodd" d="M86.0081 10.369V4.6073L88.0323 3.62256V13.4725H86.0081L82.0417 6.61808V13.4725H80.0173V4.6073L82.0284 3.62256L86.0081 10.369Z" fill="black"/>
<path fill-rule="evenodd" clip-rule="evenodd" d="M98.5281 13.4725V4.6073L100.552 3.62256V11.7993H105.261L104.276 13.4725H98.5281Z" fill="black"/>
<path fill-rule="evenodd" clip-rule="evenodd" d="M46.4748 17.0654C47.9856 17.0654 49.6187 17.9286 49.6457 19.7098C49.6457 20.5464 49.3485 21.1675 48.7279 21.6926C49.3619 22.1384 49.942 23.0692 49.9288 24.1088C49.9014 25.6875 48.5389 26.956 46.9603 26.9154H42.0486V18.0499L44.0727 17.0654H46.4748ZM46.6631 21.0178C47.2701 20.9917 47.7429 20.4924 47.7429 19.8849C47.7429 19.2779 47.2701 18.7657 46.6631 18.7382H44.0727V21.0178H46.6631ZM46.9603 25.2414C47.6345 25.2011 48.1478 24.6353 48.1478 23.9607C48.1478 23.2994 47.6209 22.7457 46.9603 22.7053H44.0727V25.2414H46.9603Z" fill="black"/>
<path fill-rule="evenodd" clip-rule="evenodd" d="M49.8904 26.9148L52.8047 18.4276L55.5979 17.0513L58.9711 26.9148H56.9065L56.2591 24.958H52.6563L51.9545 26.9148H49.8904ZM54.4373 19.6015L53.2096 23.3125H55.6788L54.4373 19.6015Z" fill="black"/>
<path fill-rule="evenodd" clip-rule="evenodd" d="M65.7398 23.8114V18.0499L67.764 17.0654V26.9154H65.7398L61.7729 20.0603V26.9154H59.7488V18.0499L61.76 17.0654L65.7398 23.8114Z" fill="black"/>
<path fill-rule="evenodd" clip-rule="evenodd" d="M70.9429 23.8248V26.9154H68.9187V18.0499L70.9429 17.0654V21.4234L74.3433 17.5776L77.217 17.0788L73.318 21.3694L77.6489 26.9278H75.1525L71.9959 22.6516L70.9429 23.8248Z" fill="black"/>
<path fill-rule="evenodd" clip-rule="evenodd" d="M46.7988 40.7303C43.6143 40.7303 42.1566 38.2885 42.0488 35.5773C41.9953 34.066 42.6826 32.6224 43.3035 31.8656L46.2725 30.4229C46.4749 30.4229 46.5962 30.4229 46.7986 30.4229C49.9826 30.4229 51.5481 32.8646 51.5481 35.5773C51.5485 38.2883 49.9831 40.7303 46.7988 40.7303ZM49.6326 35.5773C49.6326 33.8627 48.8094 32.1768 46.799 32.1768C44.8021 32.1768 43.9791 33.8764 43.9791 35.5773C43.9791 37.277 44.8021 38.9766 46.799 38.9766C48.8094 38.9766 49.6326 37.2904 49.6326 35.5773Z" fill="black"/>
<path fill-rule="evenodd" clip-rule="evenodd" d="M52.2021 40.4066V31.5416L54.2261 30.5571H59.0836L58.1127 32.2165H54.2261V34.5104H58.4765L57.5052 36.1695H54.2261V40.4066H52.2021Z" fill="black"/>
<path fill-rule="evenodd" clip-rule="evenodd" d="M70.7453 37.0617H72.6883V37.1154C72.6883 39.7591 70.0707 40.7302 68.4104 40.718C65.4557 40.7035 64.0388 38.1941 64.0388 35.6042C64.0388 34.0929 64.2818 33.0399 65.1858 31.8533L68.1275 30.4082C68.3031 30.4082 68.4242 30.4082 68.5994 30.4082C72.2559 30.423 72.6885 33.3375 72.6885 33.8089V33.903H70.7726V33.8896C70.7726 33.2821 70.1378 32.0554 68.5329 32.0688C66.8188 32.0821 65.9958 33.7683 66.0228 35.604C66.036 37.2363 66.7381 39.0035 68.5186 39.0035C70.0982 39.0035 70.7456 37.938 70.7456 37.0882L70.7453 37.0617Z" fill="black"/>
<path fill-rule="evenodd" clip-rule="evenodd" d="M72.6257 40.4068L75.54 31.9205L78.3332 30.5439L81.7064 40.407H79.6419L78.9945 38.4512H75.3919L74.6905 40.407H72.6257V40.4068ZM77.1727 33.0935L75.945 36.8042H78.4144L77.1727 33.0935Z" fill="black"/>
<path fill-rule="evenodd" clip-rule="evenodd" d="M88.2833 37.3036V31.5416L90.3075 30.5571V40.4066H88.2833L84.3176 33.5524V40.4066H82.2927V31.5416L84.3035 30.5571L88.2833 37.3036Z" fill="black"/>
<path fill-rule="evenodd" clip-rule="evenodd" d="M90.9626 40.4068L93.8774 31.9205L96.6701 30.5439L100.044 40.407H97.9788L97.3312 38.4512H93.7284L93.0267 40.407H90.9626V40.4068ZM95.5098 33.0935L94.2821 36.8042H96.7516L95.5098 33.0935Z" fill="black"/>
<path fill-rule="evenodd" clip-rule="evenodd" d="M100.59 40.4066V31.5416L102.627 30.5571H105.38C106.406 30.5571 108.807 31.5822 108.807 35.3195C108.807 39.1918 106.338 40.4066 105.394 40.4066H100.59ZM104.274 38.7472C105.421 38.7472 106.756 38.2205 106.743 35.3193C106.73 33.0257 105.812 32.2163 104.274 32.2163H102.614V38.747L104.274 38.7472Z" fill="black"/>
<path fill-rule="evenodd" clip-rule="evenodd" d="M108.543 40.4068L111.457 31.9205L114.25 30.5439L117.623 40.407H115.558L114.91 38.4512H111.308L110.607 40.407H108.543V40.4068ZM113.09 33.0935L111.861 36.8042H114.331L113.09 33.0935Z" fill="black"/>
<path fill-rule="evenodd" clip-rule="evenodd" d="M74.3841 13.7962C71.2001 13.7962 69.7428 11.354 69.6346 8.64225C69.5806 7.13099 70.2688 5.68733 70.8897 4.9317L73.8583 3.48828C74.0606 3.48828 74.1822 3.48828 74.3843 3.48828C77.5686 3.48828 79.1343 5.93052 79.1343 8.64248C79.1343 11.354 77.5686 13.7962 74.3841 13.7962ZM77.2179 8.64201C77.2179 6.92841 76.3942 5.24203 74.3843 5.24203C72.3876 5.24203 71.5644 6.94202 71.5644 8.64201C71.5644 10.342 72.3876 12.0422 74.3843 12.0422C76.3942 12.0425 77.2179 10.3559 77.2179 8.64201Z" fill="black"/>
<path fill-rule="evenodd" clip-rule="evenodd" d="M50.906 13.4729L53.821 4.98589L56.6137 3.60938L59.9867 13.4729H57.9224L57.2747 11.5164H53.6722L52.9705 13.4729H50.906ZM55.4529 6.1596L54.2255 9.87014H56.6947L55.4529 6.1596Z" fill="black"/>
<path fill-rule="evenodd" clip-rule="evenodd" d="M88.6853 13.4729L91.5996 4.98589L94.393 3.60938L97.7658 13.4729H95.7012L95.0536 11.5164H91.4505L90.7489 13.4729H88.6853ZM93.232 6.1596L92.0045 9.87014H94.474L93.232 6.1596Z" fill="black"/>
</svg>
